<svg xmlns="http://www.w3.org/2000/svg" xmlns:xlink="http://www.w3.org/1999/xlink" width="500" zoomAndPan="magnify" viewBox="0 0 375 374.999991" height="500" preserveAspectRatio="xMidYMid meet" version="1.0"><defs><clipPath id="d89aa22684"><path d="M 18.75 12.855469 L 356 12.855469 L 356 362.355469 L 18.75 362.355469 Z M 18.75 12.855469 " clip-rule="nonzero"/></clipPath></defs><rect x="-37.5" width="450" fill="#ffffff" y="-37.499999" height="449.999989" fill-opacity="1"/><rect x="-37.5" width="450" fill="#ffffff" y="-37.499999" height="449.999989" fill-opacity="1"/><g clip-path="url(#d89aa22684)"><path fill="#000000" d="M 164.105469 139.613281 C 189.394531 139.613281 209.972656 119.023438 209.972656 93.714844 C 209.972656 68.40625 189.402344 47.820312 164.105469 47.820312 C 138.804688 47.820312 118.238281 68.40625 118.238281 93.714844 C 118.238281 119.023438 138.8125 139.613281 164.105469 139.613281 Z M 163.84375 68.335938 C 170.226562 68.335938 175.398438 73.511719 175.398438 79.894531 C 175.398438 86.28125 170.226562 91.453125 163.84375 91.453125 C 157.464844 91.453125 152.292969 86.28125 152.292969 79.894531 C 152.292969 73.511719 157.464844 68.335938 163.84375 68.335938 Z M 145.695312 109.589844 C 145.695312 99.578125 153.816406 91.453125 163.820312 91.453125 C 173.828125 91.453125 181.949219 99.578125 181.949219 109.589844 L 181.949219 114.570312 L 145.695312 114.570312 Z M 339.816406 182.90625 L 332.476562 182.90625 L 332.476562 46.351562 C 332.476562 46.257812 332.429688 46.171875 332.425781 46.078125 C 332.402344 45.6875 332.324219 45.3125 332.203125 44.941406 C 332.15625 44.800781 332.113281 44.660156 332.054688 44.527344 C 331.84375 44.054688 331.570312 43.617188 331.191406 43.234375 L 301.84375 13.867188 C 301.46875 13.492188 301.023438 13.222656 300.558594 13.003906 C 300.425781 12.941406 300.285156 12.902344 300.136719 12.855469 C 299.765625 12.734375 299.398438 12.65625 299.011719 12.632812 C 298.910156 12.628906 298.820312 12.582031 298.726562 12.582031 L 108.613281 12.582031 C 97.738281 12.582031 88.890625 21.433594 88.890625 32.316406 L 88.890625 83.0625 L 34.597656 83.0625 C 25.699219 83.0625 18.457031 90.300781 18.457031 99.210938 L 18.457031 334.144531 C 18.457031 349.527344 30.964844 362.042969 46.335938 362.042969 L 328.074219 362.042969 C 343.449219 362.042969 355.957031 349.527344 355.957031 334.144531 L 355.957031 199.058594 C 355.957031 190.148438 348.71875 182.90625 339.816406 182.90625 Z M 88.890625 212.273438 L 81.554688 212.273438 C 73.765625 212.273438 67.25 217.816406 65.742188 225.171875 C 65.523438 226.222656 65.414062 227.308594 65.414062 228.425781 L 65.414062 342.953125 C 65.414062 343.660156 65.34375 344.347656 65.207031 345.011719 C 65.195312 345.0625 65.171875 345.109375 65.160156 345.164062 C 64.175781 349.621094 60.292969 352.972656 55.597656 353.1875 C 49.558594 352.738281 44.871094 347.769531 44.871094 341.664062 L 44.871094 122.707031 C 44.871094 118.660156 48.164062 115.363281 52.207031 115.363281 L 88.890625 115.363281 Z M 323.675781 182.90625 L 228.292969 182.90625 C 226.957031 182.90625 225.691406 183.519531 224.859375 184.558594 L 202.703125 212.273438 L 97.695312 212.273438 L 97.695312 32.316406 C 97.695312 26.296875 102.589844 21.390625 108.613281 21.390625 L 294.324219 21.390625 L 294.324219 46.351562 C 294.324219 48.785156 296.296875 50.757812 298.726562 50.757812 L 323.675781 50.757812 Z M 223.890625 81.59375 L 223.890625 63.972656 C 223.890625 61.542969 225.863281 59.566406 228.292969 59.566406 L 292.859375 59.566406 C 295.289062 59.566406 297.261719 61.542969 297.261719 63.972656 L 297.261719 81.59375 C 297.261719 84.023438 295.289062 85.996094 292.859375 85.996094 L 228.292969 85.996094 C 225.863281 85.996094 223.890625 84.023438 223.890625 81.59375 Z M 223.890625 105.085938 C 223.890625 102.652344 225.863281 100.679688 228.292969 100.679688 L 292.859375 100.679688 C 295.289062 100.679688 297.261719 102.652344 297.261719 105.085938 C 297.261719 107.515625 295.289062 109.492188 292.859375 109.492188 L 228.292969 109.492188 C 225.863281 109.492188 223.890625 107.515625 223.890625 105.085938 Z M 223.890625 128.578125 C 223.890625 126.148438 225.863281 124.175781 228.292969 124.175781 L 257.640625 124.175781 C 260.070312 124.175781 262.042969 126.148438 262.042969 128.578125 C 262.042969 131.011719 260.070312 132.984375 257.640625 132.984375 L 228.292969 132.984375 C 225.863281 132.984375 223.890625 131.011719 223.890625 128.578125 Z M 298.726562 153.539062 C 301.160156 153.539062 303.128906 155.515625 303.128906 157.945312 C 303.128906 160.378906 301.160156 162.351562 298.726562 162.351562 L 128.511719 162.351562 C 126.082031 162.351562 124.109375 160.378906 124.109375 157.945312 C 124.109375 155.515625 126.082031 153.539062 128.511719 153.539062 Z M 203.347656 187.3125 C 203.347656 189.742188 201.375 191.71875 198.945312 191.71875 L 128.511719 191.71875 C 126.082031 191.71875 124.109375 189.742188 124.109375 187.3125 C 124.109375 184.878906 126.082031 182.90625 128.511719 182.90625 L 198.945312 182.90625 C 201.375 182.90625 203.347656 184.878906 203.347656 187.3125 Z M 203.347656 187.3125 " fill-opacity="1" fill-rule="nonzero"/></g></svg>